<svg width="392" height="61" viewBox="0 0 392 61" fill="none" xmlns="http://www.w3.org/2000/svg">
<path d="M82.788 38.2755C84.4006 39.9429 86.3413 40.7765 88.6099 40.7765C90.8785 40.7765 92.8602 39.9292 94.5549 38.2345C96.277 36.5125 97.1379 34.3668 97.1379 31.7975V31.7155C97.1379 29.1188 96.277 26.9731 94.5549 25.2784C92.8602 23.5839 90.8785 22.7365 88.6099 22.7365C86.2593 22.7365 84.3049 23.5428 82.7469 25.1555C81.189 26.7682 80.4099 28.9412 80.4099 31.6744V31.7565C80.4099 34.4352 81.2026 36.6082 82.788 38.2755Z" fill="#080808"/>
<path d="M59.3914 38.1935C57.7787 39.9429 55.7423 40.8175 53.2823 40.8175C50.877 40.8175 48.8407 39.9429 47.1733 38.1935C45.506 36.4169 44.6724 34.2711 44.6724 31.7565V31.6744C44.6724 29.1871 45.4786 27.0688 47.0913 25.3195C48.704 23.5702 50.7404 22.6954 53.2003 22.6954C55.6057 22.6954 57.642 23.5839 59.3093 25.3605C60.9767 27.1099 61.8103 29.2418 61.8103 31.7565V31.8385C61.8103 34.3258 61.004 36.4442 59.3914 38.1935Z" fill="#080808"/>
<path d="M189.283 34.5854C188.053 35.7062 186.563 36.2665 184.814 36.2665C183.092 36.2665 181.63 35.7198 180.427 34.6265C179.251 33.5059 178.664 32.0708 178.664 30.3215V30.2395C178.664 28.4901 179.251 27.0688 180.427 25.9755C181.602 24.8822 183.065 24.3354 184.814 24.3354C186.591 24.3354 188.094 24.8959 189.324 26.0165C190.554 27.1099 191.169 28.5175 191.169 30.2395V30.3215C191.169 32.0435 190.54 33.4648 189.283 34.5854Z" fill="#080808"/>
<path d="M248.798 37.7834C247.705 38.6309 246.325 39.0544 244.657 39.0544C243.427 39.0544 242.416 38.7675 241.623 38.1935C240.831 37.5922 240.434 36.7858 240.434 35.7745V35.6925C240.434 34.5718 240.885 33.6971 241.787 33.0685C242.689 32.4125 243.933 32.0845 245.518 32.0845C247.322 32.0845 248.962 32.3715 250.438 32.9454V34.4215C250.438 35.7882 249.892 36.9088 248.798 37.7834Z" fill="#080808"/>
<path d="M281.677 38.3575C283.426 38.3575 284.888 37.7289 286.064 36.4714C287.266 35.1868 287.868 33.5059 287.868 31.4285V31.3464C287.868 29.2965 287.266 27.6292 286.064 26.3445C284.861 25.0598 283.399 24.4175 281.677 24.4175C279.955 24.4175 278.465 25.0735 277.208 26.3855C275.978 27.6702 275.363 29.3239 275.363 31.3464V31.4285C275.363 33.4512 275.978 35.1185 277.208 36.4305C278.465 37.7152 279.955 38.3575 281.677 38.3575Z" fill="#080808"/>
<path fill-rule="evenodd" clip-rule="evenodd" d="M391.438 0.588013H0.215698V60.588H391.438V0.588013ZM88.4049 42.7035C85.7262 42.7035 83.3619 41.7058 81.3119 39.7104C79.262 37.7152 78.2369 35.0912 78.2369 31.8385V31.7565C78.2369 28.5038 79.262 25.8662 81.3119 23.8435C83.3619 21.8208 85.7262 20.8094 88.4049 20.8094C91.9583 20.8094 94.8282 22.4768 97.0149 25.8115V12.2815H99.0239V42.2115H97.0149V37.5375C94.7462 40.9814 91.8762 42.7035 88.4049 42.7035ZM13.322 39.5055C15.3994 41.6375 17.9277 42.7035 20.9071 42.7035C24.1598 42.7035 27.0024 41.3231 29.4351 38.5625L28.041 37.3325C25.9637 39.6559 23.6267 40.8175 21.03 40.8175C18.6248 40.8175 16.5884 39.9429 14.921 38.1935C13.2538 36.4169 12.42 34.2711 12.42 31.7565V31.6744C12.42 29.1598 13.2264 27.0415 14.8391 25.3195C16.4791 23.5702 18.488 22.6954 20.8661 22.6954C23.2714 22.6954 25.5947 23.8435 27.8361 26.1395L29.2711 24.6635C26.811 22.0941 24.0231 20.8094 20.9071 20.8094C17.9551 20.8094 15.4404 21.9028 13.363 24.0895C11.2858 26.2488 10.2471 28.8044 10.2471 31.7565V31.8385C10.2471 34.7905 11.2721 37.3462 13.322 39.5055ZM53.2003 42.7035C56.2617 42.7035 58.8174 41.6238 60.8673 39.4645C62.9447 37.3052 63.9834 34.7358 63.9834 31.7565V31.6744C63.9834 28.6952 62.9584 26.1395 60.9083 24.0074C58.8856 21.8755 56.3436 20.8094 53.2823 20.8094C50.2209 20.8094 47.6516 21.8892 45.5743 24.0485C43.5243 26.2079 42.4994 28.7772 42.4994 31.7565V31.8385C42.4994 34.8179 43.5106 37.3735 45.5333 39.5055C47.5834 41.6375 50.139 42.7035 53.2003 42.7035ZM132.445 21.3015L124.901 39.9974L116.209 21.3015H113.872L123.917 42.0885C123.152 43.8925 122.373 45.1635 121.58 45.9015C120.788 46.6395 119.845 47.0085 118.751 47.0085C117.439 47.0085 116.25 46.7488 115.184 46.2295L114.487 47.9926C115.854 48.5939 117.234 48.8945 118.628 48.8945C120.159 48.8945 121.471 48.4298 122.564 47.5005C123.685 46.5985 124.696 45.0815 125.598 42.9495L134.659 21.3015H132.445ZM149.62 42.2115V21.3015H151.629V27.2465C152.476 25.3331 153.72 23.7888 155.36 22.6135C157.027 21.4381 158.872 20.8915 160.895 20.9735V23.1875H160.69C158.148 23.1875 156.002 24.1168 154.253 25.9755C152.504 27.8341 151.629 30.3898 151.629 33.6425V42.2115H149.62ZM174.728 46.2705C177.571 47.9926 180.796 48.8535 184.404 48.8535C188.395 48.8535 191.36 47.8832 193.301 45.9425C195.132 44.1112 196.048 41.3915 196.048 37.7834V20.5635H191.087V23.8025C189.037 21.3425 186.509 20.1125 183.502 20.1125C180.85 20.1125 178.541 21.0419 176.573 22.9005C174.632 24.7592 173.662 27.2191 173.662 30.2805V30.3625C173.662 33.4238 174.632 35.8838 176.573 37.7426C178.514 39.5739 180.823 40.4895 183.502 40.4895C186.536 40.4895 189.078 39.1775 191.128 36.5535V38.1935C191.128 40.3528 190.54 41.9928 189.365 43.1135C188.19 44.2341 186.495 44.7944 184.281 44.7944C181.602 44.7944 179.033 44.0428 176.573 42.5396L174.728 46.2705ZM211.665 42.2115V20.5635H216.667V25.4425C218.197 21.7524 220.753 19.9895 224.334 20.1534V25.4015H224.047C221.805 25.4015 220.015 26.1395 218.676 27.6155C217.336 29.0642 216.667 31.1825 216.667 33.9705V42.2115H211.665ZM237.769 40.8995C239.273 42.0748 241.104 42.6625 243.263 42.6625C246.215 42.6625 248.566 41.6101 250.315 39.5055V42.2115H255.153V29.3785C255.153 26.4539 254.374 24.2262 252.816 22.6954C251.258 21.0829 248.867 20.2765 245.641 20.2765C242.853 20.2765 240.12 20.8641 237.441 22.0396L238.794 25.9344C240.954 25.0325 243.017 24.5815 244.985 24.5815C246.734 24.5815 248.06 24.9915 248.962 25.8115C249.892 26.6041 250.356 27.7659 250.356 29.2965V29.8295C248.47 29.2281 246.53 28.9275 244.534 28.9275C241.801 28.9275 239.614 29.5288 237.974 30.7314C236.362 31.9069 235.555 33.6288 235.555 35.8975V35.9795C235.555 38.0569 236.293 39.6968 237.769 40.8995ZM270.484 48.7715V20.5635H275.486V24.1715C277.399 21.4655 279.859 20.1125 282.866 20.1125C285.572 20.1125 287.922 21.1238 289.918 23.1465C291.913 25.1692 292.911 27.9025 292.911 31.3464V31.4285C292.911 34.8452 291.913 37.5785 289.918 39.6285C287.95 41.6511 285.599 42.6625 282.866 42.6625C279.859 42.6625 277.399 41.3915 275.486 38.8495V48.7715H270.484ZM307.421 12.2815V42.2115H312.422V29.9935C312.422 28.3262 312.874 27.0142 313.776 26.0575C314.677 25.1008 315.853 24.6224 317.302 24.6224C318.777 24.6224 319.912 25.0872 320.705 26.0165C321.525 26.9185 321.935 28.2168 321.935 29.9115V42.2115H326.896V28.3945C326.896 25.8525 326.212 23.8435 324.845 22.3676C323.479 20.8641 321.593 20.1125 319.188 20.1125C316.427 20.1125 314.172 21.3699 312.422 23.8845V12.2815H307.421ZM342.398 17.2426V12.5275H347.728V17.2426H342.398ZM342.562 42.2115V20.5635H347.564V42.2115H342.562ZM365.487 39.4645C367.619 41.6238 370.284 42.7035 373.482 42.7035C375.45 42.7035 377.117 42.3618 378.484 41.6785C379.878 40.9678 381.162 39.9565 382.338 38.6445L379.345 35.6925C377.568 37.4691 375.696 38.3575 373.728 38.3575C371.842 38.3575 370.284 37.6879 369.054 36.3485C367.851 35.0092 367.25 33.3691 367.25 31.4285V31.3464C367.25 29.4331 367.851 27.8069 369.054 26.4675C370.256 25.1282 371.746 24.4585 373.523 24.4585C375.491 24.4585 377.349 25.3605 379.099 27.1646L382.215 23.8435C379.919 21.3562 377.035 20.1125 373.564 20.1125C370.338 20.1125 367.646 21.2195 365.487 23.4335C363.355 25.6475 362.289 28.3125 362.289 31.4285V31.5105C362.289 34.6265 363.355 37.2778 365.487 39.4645Z" fill="#080808"/>
</svg>
